<svg xmlns="http://www.w3.org/2000/svg" width="800" height="500" viewBox="0 0 800 500">
<defs><radialGradient id="rg" cx="50%" cy="35%" r="70%"><stop offset="0%" stop-color="#8b5cf6" stop-opacity="0.13"/><stop offset="100%" stop-color="#0a0e17" stop-opacity="0"/></radialGradient></defs><rect width="800" height="500" fill="#0a0e17"/><rect width="800" height="500" fill="url(#rg)"/>
<circle cx="0" cy="0" r="1" fill="#1e2840" opacity="0.22"/><circle cx="0" cy="36" r="1" fill="#1e2840" opacity="0.22"/><circle cx="0" cy="72" r="1" fill="#1e2840" opacity="0.22"/><circle cx="0" cy="108" r="1" fill="#1e2840" opacity="0.22"/><circle cx="0" cy="144" r="1" fill="#1e2840" opacity="0.22"/><circle cx="0" cy="180" r="1" fill="#1e2840" opacity="0.22"/><circle cx="0" cy="216" r="1" fill="#1e2840" opacity="0.22"/><circle cx="0" cy="252" r="1" fill="#1e2840" opacity="0.22"/><circle cx="0" cy="288" r="1" fill="#1e2840" opacity="0.22"/><circle cx="0" cy="324" r="1" fill="#1e2840" opacity="0.22"/><circle cx="0" cy="360" r="1" fill="#1e2840" opacity="0.22"/><circle cx="0" cy="396" r="1" fill="#1e2840" opacity="0.22"/><circle cx="0" cy="432" r="1" fill="#1e2840" opacity="0.22"/><circle cx="0" cy="468" r="1" fill="#1e2840" opacity="0.22"/><circle cx="36" cy="0" r="1" fill="#1e2840" opacity="0.22"/><circle cx="36" cy="36" r="1" fill="#1e2840" opacity="0.22"/><circle cx="36" cy="72" r="1" fill="#1e2840" opacity="0.22"/><circle cx="36" cy="108" r="1" fill="#1e2840" opacity="0.22"/><circle cx="36" cy="144" r="1" fill="#1e2840" opacity="0.22"/><circle cx="36" cy="180" r="1" fill="#1e2840" opacity="0.22"/><circle cx="36" cy="216" r="1" fill="#1e2840" opacity="0.22"/><circle cx="36" cy="252" r="1" fill="#1e2840" opacity="0.22"/><circle cx="36" cy="288" r="1" fill="#1e2840" opacity="0.22"/><circle cx="36" cy="324" r="1" fill="#1e2840" opacity="0.22"/><circle cx="36" cy="360" r="1" fill="#1e2840" opacity="0.22"/><circle cx="36" cy="396" r="1" fill="#1e2840" opacity="0.22"/><circle cx="36" cy="432" r="1" fill="#1e2840" opacity="0.22"/><circle cx="36" cy="468" r="1" fill="#1e2840" opacity="0.22"/><circle cx="72" cy="0" r="1" fill="#1e2840" opacity="0.22"/><circle cx="72" cy="36" r="1" fill="#1e2840" opacity="0.22"/><circle cx="72" cy="72" r="1" fill="#1e2840" opacity="0.22"/><circle cx="72" cy="108" r="1" fill="#1e2840" opacity="0.22"/><circle cx="72" cy="144" r="1" fill="#1e2840" opacity="0.22"/><circle cx="72" cy="180" r="1" fill="#1e2840" opacity="0.22"/><circle cx="72" cy="216" r="1" fill="#1e2840" opacity="0.22"/><circle cx="72" cy="252" r="1" fill="#1e2840" opacity="0.22"/><circle cx="72" cy="288" r="1" fill="#1e2840" opacity="0.22"/><circle cx="72" cy="324" r="1" fill="#1e2840" opacity="0.22"/><circle cx="72" cy="360" r="1" fill="#1e2840" opacity="0.22"/><circle cx="72" cy="396" r="1" fill="#1e2840" opacity="0.22"/><circle cx="72" cy="432" r="1" fill="#1e2840" opacity="0.22"/><circle cx="72" cy="468" r="1" fill="#1e2840" opacity="0.22"/><circle cx="108" cy="0" r="1" fill="#1e2840" opacity="0.22"/><circle cx="108" cy="36" r="1" fill="#1e2840" opacity="0.22"/><circle cx="108" cy="72" r="1" fill="#1e2840" opacity="0.22"/><circle cx="108" cy="108" r="1" fill="#1e2840" opacity="0.22"/><circle cx="108" cy="144" r="1" fill="#1e2840" opacity="0.22"/><circle cx="108" cy="180" r="1" fill="#1e2840" opacity="0.22"/><circle cx="108" cy="216" r="1" fill="#1e2840" opacity="0.22"/><circle cx="108" cy="252" r="1" fill="#1e2840" opacity="0.22"/><circle cx="108" cy="288" r="1" fill="#1e2840" opacity="0.22"/><circle cx="108" cy="324" r="1" fill="#1e2840" opacity="0.22"/><circle cx="108" cy="360" r="1" fill="#1e2840" opacity="0.22"/><circle cx="108" cy="396" r="1" fill="#1e2840" opacity="0.22"/><circle cx="108" cy="432" r="1" fill="#1e2840" opacity="0.22"/><circle cx="108" cy="468" r="1" fill="#1e2840" opacity="0.22"/><circle cx="144" cy="0" r="1" fill="#1e2840" opacity="0.22"/><circle cx="144" cy="36" r="1" fill="#1e2840" opacity="0.22"/><circle cx="144" cy="72" r="1" fill="#1e2840" opacity="0.22"/><circle cx="144" cy="108" r="1" fill="#1e2840" opacity="0.22"/><circle cx="144" cy="144" r="1" fill="#1e2840" opacity="0.22"/><circle cx="144" cy="180" r="1" fill="#1e2840" opacity="0.22"/><circle cx="144" cy="216" r="1" fill="#1e2840" opacity="0.22"/><circle cx="144" cy="252" r="1" fill="#1e2840" opacity="0.22"/><circle cx="144" cy="288" r="1" fill="#1e2840" opacity="0.22"/><circle cx="144" cy="324" r="1" fill="#1e2840" opacity="0.22"/><circle cx="144" cy="360" r="1" fill="#1e2840" opacity="0.22"/><circle cx="144" cy="396" r="1" fill="#1e2840" opacity="0.22"/><circle cx="144" cy="432" r="1" fill="#1e2840" opacity="0.22"/><circle cx="144" cy="468" r="1" fill="#1e2840" opacity="0.22"/><circle cx="180" cy="0" r="1" fill="#1e2840" opacity="0.22"/><circle cx="180" cy="36" r="1" fill="#1e2840" opacity="0.22"/><circle cx="180" cy="72" r="1" fill="#1e2840" opacity="0.22"/><circle cx="180" cy="108" r="1" fill="#1e2840" opacity="0.22"/><circle cx="180" cy="144" r="1" fill="#1e2840" opacity="0.22"/><circle cx="180" cy="180" r="1" fill="#1e2840" opacity="0.22"/><circle cx="180" cy="216" r="1" fill="#1e2840" opacity="0.22"/><circle cx="180" cy="252" r="1" fill="#1e2840" opacity="0.22"/><circle cx="180" cy="288" r="1" fill="#1e2840" opacity="0.22"/><circle cx="180" cy="324" r="1" fill="#1e2840" opacity="0.22"/><circle cx="180" cy="360" r="1" fill="#1e2840" opacity="0.22"/><circle cx="180" cy="396" r="1" fill="#1e2840" opacity="0.22"/><circle cx="180" cy="432" r="1" fill="#1e2840" opacity="0.22"/><circle cx="180" cy="468" r="1" fill="#1e2840" opacity="0.22"/><circle cx="216" cy="0" r="1" fill="#1e2840" opacity="0.22"/><circle cx="216" cy="36" r="1" fill="#1e2840" opacity="0.22"/><circle cx="216" cy="72" r="1" fill="#1e2840" opacity="0.22"/><circle cx="216" cy="108" r="1" fill="#1e2840" opacity="0.22"/><circle cx="216" cy="144" r="1" fill="#1e2840" opacity="0.22"/><circle cx="216" cy="180" r="1" fill="#1e2840" opacity="0.22"/><circle cx="216" cy="216" r="1" fill="#1e2840" opacity="0.22"/><circle cx="216" cy="252" r="1" fill="#1e2840" opacity="0.22"/><circle cx="216" cy="288" r="1" fill="#1e2840" opacity="0.22"/><circle cx="216" cy="324" r="1" fill="#1e2840" opacity="0.22"/><circle cx="216" cy="360" r="1" fill="#1e2840" opacity="0.22"/><circle cx="216" cy="396" r="1" fill="#1e2840" opacity="0.22"/><circle cx="216" cy="432" r="1" fill="#1e2840" opacity="0.22"/><circle cx="216" cy="468" r="1" fill="#1e2840" opacity="0.22"/><circle cx="252" cy="0" r="1" fill="#1e2840" opacity="0.22"/><circle cx="252" cy="36" r="1" fill="#1e2840" opacity="0.22"/><circle cx="252" cy="72" r="1" fill="#1e2840" opacity="0.22"/><circle cx="252" cy="108" r="1" fill="#1e2840" opacity="0.22"/><circle cx="252" cy="144" r="1" fill="#1e2840" opacity="0.22"/><circle cx="252" cy="180" r="1" fill="#1e2840" opacity="0.22"/><circle cx="252" cy="216" r="1" fill="#1e2840" opacity="0.22"/><circle cx="252" cy="252" r="1" fill="#1e2840" opacity="0.22"/><circle cx="252" cy="288" r="1" fill="#1e2840" opacity="0.22"/><circle cx="252" cy="324" r="1" fill="#1e2840" opacity="0.22"/><circle cx="252" cy="360" r="1" fill="#1e2840" opacity="0.22"/><circle cx="252" cy="396" r="1" fill="#1e2840" opacity="0.22"/><circle cx="252" cy="432" r="1" fill="#1e2840" opacity="0.22"/><circle cx="252" cy="468" r="1" fill="#1e2840" opacity="0.22"/><circle cx="288" cy="0" r="1" fill="#1e2840" opacity="0.22"/><circle cx="288" cy="36" r="1" fill="#1e2840" opacity="0.22"/><circle cx="288" cy="72" r="1" fill="#1e2840" opacity="0.22"/><circle cx="288" cy="108" r="1" fill="#1e2840" opacity="0.22"/><circle cx="288" cy="144" r="1" fill="#1e2840" opacity="0.22"/><circle cx="288" cy="180" r="1" fill="#1e2840" opacity="0.22"/><circle cx="288" cy="216" r="1" fill="#1e2840" opacity="0.22"/><circle cx="288" cy="252" r="1" fill="#1e2840" opacity="0.22"/><circle cx="288" cy="288" r="1" fill="#1e2840" opacity="0.22"/><circle cx="288" cy="324" r="1" fill="#1e2840" opacity="0.22"/><circle cx="288" cy="360" r="1" fill="#1e2840" opacity="0.22"/><circle cx="288" cy="396" r="1" fill="#1e2840" opacity="0.22"/><circle cx="288" cy="432" r="1" fill="#1e2840" opacity="0.22"/><circle cx="288" cy="468" r="1" fill="#1e2840" opacity="0.22"/><circle cx="324" cy="0" r="1" fill="#1e2840" opacity="0.22"/><circle cx="324" cy="36" r="1" fill="#1e2840" opacity="0.22"/><circle cx="324" cy="72" r="1" fill="#1e2840" opacity="0.22"/><circle cx="324" cy="108" r="1" fill="#1e2840" opacity="0.22"/><circle cx="324" cy="144" r="1" fill="#1e2840" opacity="0.22"/><circle cx="324" cy="180" r="1" fill="#1e2840" opacity="0.22"/><circle cx="324" cy="216" r="1" fill="#1e2840" opacity="0.22"/><circle cx="324" cy="252" r="1" fill="#1e2840" opacity="0.22"/><circle cx="324" cy="288" r="1" fill="#1e2840" opacity="0.22"/><circle cx="324" cy="324" r="1" fill="#1e2840" opacity="0.22"/><circle cx="324" cy="360" r="1" fill="#1e2840" opacity="0.22"/><circle cx="324" cy="396" r="1" fill="#1e2840" opacity="0.22"/><circle cx="324" cy="432" r="1" fill="#1e2840" opacity="0.22"/><circle cx="324" cy="468" r="1" fill="#1e2840" opacity="0.22"/><circle cx="360" cy="0" r="1" fill="#1e2840" opacity="0.22"/><circle cx="360" cy="36" r="1" fill="#1e2840" opacity="0.22"/><circle cx="360" cy="72" r="1" fill="#1e2840" opacity="0.22"/><circle cx="360" cy="108" r="1" fill="#1e2840" opacity="0.22"/><circle cx="360" cy="144" r="1" fill="#1e2840" opacity="0.22"/><circle cx="360" cy="180" r="1" fill="#1e2840" opacity="0.22"/><circle cx="360" cy="216" r="1" fill="#1e2840" opacity="0.22"/><circle cx="360" cy="252" r="1" fill="#1e2840" opacity="0.22"/><circle cx="360" cy="288" r="1" fill="#1e2840" opacity="0.22"/><circle cx="360" cy="324" r="1" fill="#1e2840" opacity="0.22"/><circle cx="360" cy="360" r="1" fill="#1e2840" opacity="0.22"/><circle cx="360" cy="396" r="1" fill="#1e2840" opacity="0.22"/><circle cx="360" cy="432" r="1" fill="#1e2840" opacity="0.22"/><circle cx="360" cy="468" r="1" fill="#1e2840" opacity="0.22"/><circle cx="396" cy="0" r="1" fill="#1e2840" opacity="0.22"/><circle cx="396" cy="36" r="1" fill="#1e2840" opacity="0.22"/><circle cx="396" cy="72" r="1" fill="#1e2840" opacity="0.22"/><circle cx="396" cy="108" r="1" fill="#1e2840" opacity="0.22"/><circle cx="396" cy="144" r="1" fill="#1e2840" opacity="0.22"/><circle cx="396" cy="180" r="1" fill="#1e2840" opacity="0.22"/><circle cx="396" cy="216" r="1" fill="#1e2840" opacity="0.22"/><circle cx="396" cy="252" r="1" fill="#1e2840" opacity="0.22"/><circle cx="396" cy="288" r="1" fill="#1e2840" opacity="0.22"/><circle cx="396" cy="324" r="1" fill="#1e2840" opacity="0.22"/><circle cx="396" cy="360" r="1" fill="#1e2840" opacity="0.22"/><circle cx="396" cy="396" r="1" fill="#1e2840" opacity="0.22"/><circle cx="396" cy="432" r="1" fill="#1e2840" opacity="0.22"/><circle cx="396" cy="468" r="1" fill="#1e2840" opacity="0.22"/><circle cx="432" cy="0" r="1" fill="#1e2840" opacity="0.22"/><circle cx="432" cy="36" r="1" fill="#1e2840" opacity="0.22"/><circle cx="432" cy="72" r="1" fill="#1e2840" opacity="0.22"/><circle cx="432" cy="108" r="1" fill="#1e2840" opacity="0.22"/><circle cx="432" cy="144" r="1" fill="#1e2840" opacity="0.22"/><circle cx="432" cy="180" r="1" fill="#1e2840" opacity="0.22"/><circle cx="432" cy="216" r="1" fill="#1e2840" opacity="0.22"/><circle cx="432" cy="252" r="1" fill="#1e2840" opacity="0.22"/><circle cx="432" cy="288" r="1" fill="#1e2840" opacity="0.22"/><circle cx="432" cy="324" r="1" fill="#1e2840" opacity="0.22"/><circle cx="432" cy="360" r="1" fill="#1e2840" opacity="0.22"/><circle cx="432" cy="396" r="1" fill="#1e2840" opacity="0.22"/><circle cx="432" cy="432" r="1" fill="#1e2840" opacity="0.22"/><circle cx="432" cy="468" r="1" fill="#1e2840" opacity="0.22"/><circle cx="468" cy="0" r="1" fill="#1e2840" opacity="0.22"/><circle cx="468" cy="36" r="1" fill="#1e2840" opacity="0.22"/><circle cx="468" cy="72" r="1" fill="#1e2840" opacity="0.22"/><circle cx="468" cy="108" r="1" fill="#1e2840" opacity="0.22"/><circle cx="468" cy="144" r="1" fill="#1e2840" opacity="0.22"/><circle cx="468" cy="180" r="1" fill="#1e2840" opacity="0.22"/><circle cx="468" cy="216" r="1" fill="#1e2840" opacity="0.22"/><circle cx="468" cy="252" r="1" fill="#1e2840" opacity="0.22"/><circle cx="468" cy="288" r="1" fill="#1e2840" opacity="0.22"/><circle cx="468" cy="324" r="1" fill="#1e2840" opacity="0.22"/><circle cx="468" cy="360" r="1" fill="#1e2840" opacity="0.22"/><circle cx="468" cy="396" r="1" fill="#1e2840" opacity="0.22"/><circle cx="468" cy="432" r="1" fill="#1e2840" opacity="0.22"/><circle cx="468" cy="468" r="1" fill="#1e2840" opacity="0.22"/><circle cx="504" cy="0" r="1" fill="#1e2840" opacity="0.22"/><circle cx="504" cy="36" r="1" fill="#1e2840" opacity="0.22"/><circle cx="504" cy="72" r="1" fill="#1e2840" opacity="0.22"/><circle cx="504" cy="108" r="1" fill="#1e2840" opacity="0.22"/><circle cx="504" cy="144" r="1" fill="#1e2840" opacity="0.22"/><circle cx="504" cy="180" r="1" fill="#1e2840" opacity="0.22"/><circle cx="504" cy="216" r="1" fill="#1e2840" opacity="0.22"/><circle cx="504" cy="252" r="1" fill="#1e2840" opacity="0.22"/><circle cx="504" cy="288" r="1" fill="#1e2840" opacity="0.22"/><circle cx="504" cy="324" r="1" fill="#1e2840" opacity="0.22"/><circle cx="504" cy="360" r="1" fill="#1e2840" opacity="0.22"/><circle cx="504" cy="396" r="1" fill="#1e2840" opacity="0.22"/><circle cx="504" cy="432" r="1" fill="#1e2840" opacity="0.22"/><circle cx="504" cy="468" r="1" fill="#1e2840" opacity="0.22"/><circle cx="540" cy="0" r="1" fill="#1e2840" opacity="0.22"/><circle cx="540" cy="36" r="1" fill="#1e2840" opacity="0.22"/><circle cx="540" cy="72" r="1" fill="#1e2840" opacity="0.22"/><circle cx="540" cy="108" r="1" fill="#1e2840" opacity="0.22"/><circle cx="540" cy="144" r="1" fill="#1e2840" opacity="0.22"/><circle cx="540" cy="180" r="1" fill="#1e2840" opacity="0.22"/><circle cx="540" cy="216" r="1" fill="#1e2840" opacity="0.22"/><circle cx="540" cy="252" r="1" fill="#1e2840" opacity="0.22"/><circle cx="540" cy="288" r="1" fill="#1e2840" opacity="0.22"/><circle cx="540" cy="324" r="1" fill="#1e2840" opacity="0.22"/><circle cx="540" cy="360" r="1" fill="#1e2840" opacity="0.22"/><circle cx="540" cy="396" r="1" fill="#1e2840" opacity="0.22"/><circle cx="540" cy="432" r="1" fill="#1e2840" opacity="0.22"/><circle cx="540" cy="468" r="1" fill="#1e2840" opacity="0.22"/><circle cx="576" cy="0" r="1" fill="#1e2840" opacity="0.22"/><circle cx="576" cy="36" r="1" fill="#1e2840" opacity="0.22"/><circle cx="576" cy="72" r="1" fill="#1e2840" opacity="0.22"/><circle cx="576" cy="108" r="1" fill="#1e2840" opacity="0.22"/><circle cx="576" cy="144" r="1" fill="#1e2840" opacity="0.22"/><circle cx="576" cy="180" r="1" fill="#1e2840" opacity="0.22"/><circle cx="576" cy="216" r="1" fill="#1e2840" opacity="0.22"/><circle cx="576" cy="252" r="1" fill="#1e2840" opacity="0.22"/><circle cx="576" cy="288" r="1" fill="#1e2840" opacity="0.22"/><circle cx="576" cy="324" r="1" fill="#1e2840" opacity="0.22"/><circle cx="576" cy="360" r="1" fill="#1e2840" opacity="0.22"/><circle cx="576" cy="396" r="1" fill="#1e2840" opacity="0.22"/><circle cx="576" cy="432" r="1" fill="#1e2840" opacity="0.22"/><circle cx="576" cy="468" r="1" fill="#1e2840" opacity="0.22"/><circle cx="612" cy="0" r="1" fill="#1e2840" opacity="0.22"/><circle cx="612" cy="36" r="1" fill="#1e2840" opacity="0.22"/><circle cx="612" cy="72" r="1" fill="#1e2840" opacity="0.22"/><circle cx="612" cy="108" r="1" fill="#1e2840" opacity="0.22"/><circle cx="612" cy="144" r="1" fill="#1e2840" opacity="0.22"/><circle cx="612" cy="180" r="1" fill="#1e2840" opacity="0.22"/><circle cx="612" cy="216" r="1" fill="#1e2840" opacity="0.22"/><circle cx="612" cy="252" r="1" fill="#1e2840" opacity="0.22"/><circle cx="612" cy="288" r="1" fill="#1e2840" opacity="0.22"/><circle cx="612" cy="324" r="1" fill="#1e2840" opacity="0.22"/><circle cx="612" cy="360" r="1" fill="#1e2840" opacity="0.22"/><circle cx="612" cy="396" r="1" fill="#1e2840" opacity="0.22"/><circle cx="612" cy="432" r="1" fill="#1e2840" opacity="0.22"/><circle cx="612" cy="468" r="1" fill="#1e2840" opacity="0.22"/><circle cx="648" cy="0" r="1" fill="#1e2840" opacity="0.22"/><circle cx="648" cy="36" r="1" fill="#1e2840" opacity="0.22"/><circle cx="648" cy="72" r="1" fill="#1e2840" opacity="0.22"/><circle cx="648" cy="108" r="1" fill="#1e2840" opacity="0.22"/><circle cx="648" cy="144" r="1" fill="#1e2840" opacity="0.22"/><circle cx="648" cy="180" r="1" fill="#1e2840" opacity="0.22"/><circle cx="648" cy="216" r="1" fill="#1e2840" opacity="0.22"/><circle cx="648" cy="252" r="1" fill="#1e2840" opacity="0.22"/><circle cx="648" cy="288" r="1" fill="#1e2840" opacity="0.22"/><circle cx="648" cy="324" r="1" fill="#1e2840" opacity="0.22"/><circle cx="648" cy="360" r="1" fill="#1e2840" opacity="0.22"/><circle cx="648" cy="396" r="1" fill="#1e2840" opacity="0.22"/><circle cx="648" cy="432" r="1" fill="#1e2840" opacity="0.22"/><circle cx="648" cy="468" r="1" fill="#1e2840" opacity="0.22"/><circle cx="684" cy="0" r="1" fill="#1e2840" opacity="0.22"/><circle cx="684" cy="36" r="1" fill="#1e2840" opacity="0.22"/><circle cx="684" cy="72" r="1" fill="#1e2840" opacity="0.22"/><circle cx="684" cy="108" r="1" fill="#1e2840" opacity="0.22"/><circle cx="684" cy="144" r="1" fill="#1e2840" opacity="0.22"/><circle cx="684" cy="180" r="1" fill="#1e2840" opacity="0.22"/><circle cx="684" cy="216" r="1" fill="#1e2840" opacity="0.22"/><circle cx="684" cy="252" r="1" fill="#1e2840" opacity="0.22"/><circle cx="684" cy="288" r="1" fill="#1e2840" opacity="0.22"/><circle cx="684" cy="324" r="1" fill="#1e2840" opacity="0.22"/><circle cx="684" cy="360" r="1" fill="#1e2840" opacity="0.22"/><circle cx="684" cy="396" r="1" fill="#1e2840" opacity="0.22"/><circle cx="684" cy="432" r="1" fill="#1e2840" opacity="0.22"/><circle cx="684" cy="468" r="1" fill="#1e2840" opacity="0.22"/><circle cx="720" cy="0" r="1" fill="#1e2840" opacity="0.22"/><circle cx="720" cy="36" r="1" fill="#1e2840" opacity="0.22"/><circle cx="720" cy="72" r="1" fill="#1e2840" opacity="0.22"/><circle cx="720" cy="108" r="1" fill="#1e2840" opacity="0.22"/><circle cx="720" cy="144" r="1" fill="#1e2840" opacity="0.22"/><circle cx="720" cy="180" r="1" fill="#1e2840" opacity="0.22"/><circle cx="720" cy="216" r="1" fill="#1e2840" opacity="0.22"/><circle cx="720" cy="252" r="1" fill="#1e2840" opacity="0.22"/><circle cx="720" cy="288" r="1" fill="#1e2840" opacity="0.22"/><circle cx="720" cy="324" r="1" fill="#1e2840" opacity="0.22"/><circle cx="720" cy="360" r="1" fill="#1e2840" opacity="0.22"/><circle cx="720" cy="396" r="1" fill="#1e2840" opacity="0.22"/><circle cx="720" cy="432" r="1" fill="#1e2840" opacity="0.22"/><circle cx="720" cy="468" r="1" fill="#1e2840" opacity="0.22"/><circle cx="756" cy="0" r="1" fill="#1e2840" opacity="0.22"/><circle cx="756" cy="36" r="1" fill="#1e2840" opacity="0.22"/><circle cx="756" cy="72" r="1" fill="#1e2840" opacity="0.22"/><circle cx="756" cy="108" r="1" fill="#1e2840" opacity="0.22"/><circle cx="756" cy="144" r="1" fill="#1e2840" opacity="0.22"/><circle cx="756" cy="180" r="1" fill="#1e2840" opacity="0.22"/><circle cx="756" cy="216" r="1" fill="#1e2840" opacity="0.22"/><circle cx="756" cy="252" r="1" fill="#1e2840" opacity="0.22"/><circle cx="756" cy="288" r="1" fill="#1e2840" opacity="0.22"/><circle cx="756" cy="324" r="1" fill="#1e2840" opacity="0.22"/><circle cx="756" cy="360" r="1" fill="#1e2840" opacity="0.22"/><circle cx="756" cy="396" r="1" fill="#1e2840" opacity="0.22"/><circle cx="756" cy="432" r="1" fill="#1e2840" opacity="0.22"/><circle cx="756" cy="468" r="1" fill="#1e2840" opacity="0.22"/><circle cx="792" cy="0" r="1" fill="#1e2840" opacity="0.22"/><circle cx="792" cy="36" r="1" fill="#1e2840" opacity="0.22"/><circle cx="792" cy="72" r="1" fill="#1e2840" opacity="0.22"/><circle cx="792" cy="108" r="1" fill="#1e2840" opacity="0.22"/><circle cx="792" cy="144" r="1" fill="#1e2840" opacity="0.22"/><circle cx="792" cy="180" r="1" fill="#1e2840" opacity="0.22"/><circle cx="792" cy="216" r="1" fill="#1e2840" opacity="0.22"/><circle cx="792" cy="252" r="1" fill="#1e2840" opacity="0.22"/><circle cx="792" cy="288" r="1" fill="#1e2840" opacity="0.22"/><circle cx="792" cy="324" r="1" fill="#1e2840" opacity="0.22"/><circle cx="792" cy="360" r="1" fill="#1e2840" opacity="0.22"/><circle cx="792" cy="396" r="1" fill="#1e2840" opacity="0.22"/><circle cx="792" cy="432" r="1" fill="#1e2840" opacity="0.22"/><circle cx="792" cy="468" r="1" fill="#1e2840" opacity="0.22"/>
<rect x="36" y="24" width="28" height="28" rx="6" fill="#6366f1"/><rect x="41.0" y="29.0" width="16.2" height="3.9" rx="2.0" fill="white"/><rect x="46.1" y="36.0" width="16.2" height="3.9" rx="2.0" fill="white"/><rect x="41.0" y="43.0" width="16.2" height="3.9" rx="2.0" fill="white"/><text x="74" y="42" font-family="system-ui,-apple-system,sans-serif" font-size="20" fill="#e2e8f0" font-weight="800">Specta</text>
<rect x="36" y="86" width="68" height="68" rx="16" fill="#8b5cf6" opacity="0.14" stroke="#8b5cf6" stroke-width="1.5"/>
<text x="70" y="134" font-family="system-ui,-apple-system,sans-serif" font-size="28" fill="#8b5cf6" text-anchor="middle">📊</text>
<text x="122" y="120" font-family="system-ui,-apple-system,sans-serif" font-size="24" fill="#e2e8f0" font-weight="800">Developer Practice Scores</text>
<text x="122" y="145" font-family="system-ui,-apple-system,sans-serif" font-size="13" fill="#64748b">Grade every developer's AI habits</text>
<rect x="36" y="180" width="728" height="1" fill="#1e2840"/>
<circle cx="49" cy="226" r="9" fill="#8b5cf6" opacity="0.13"/><text x="49" y="230" font-family="system-ui,-apple-system,sans-serif" font-size="11" fill="#8b5cf6" text-anchor="middle" font-weight="700">✓</text><text x="66" y="230" font-family="system-ui,-apple-system,sans-serif" font-size="15" fill="#e2e8f0">5 dimensions: Prompt Quality, Session Hygiene, Context Mgmt</text>
<circle cx="49" cy="272" r="9" fill="#8b5cf6" opacity="0.13"/><text x="49" y="276" font-family="system-ui,-apple-system,sans-serif" font-size="11" fill="#8b5cf6" text-anchor="middle" font-weight="700">✓</text><text x="66" y="276" font-family="system-ui,-apple-system,sans-serif" font-size="15" fill="#e2e8f0">Tool Mastery and Code Review scored 0–100 hourly</text>
<circle cx="49" cy="318" r="9" fill="#8b5cf6" opacity="0.13"/><text x="49" y="322" font-family="system-ui,-apple-system,sans-serif" font-size="11" fill="#8b5cf6" text-anchor="middle" font-weight="700">✓</text><text x="66" y="322" font-family="system-ui,-apple-system,sans-serif" font-size="15" fill="#e2e8f0">Trend analysis over 30 days per developer</text>
<circle cx="49" cy="364" r="9" fill="#8b5cf6" opacity="0.13"/><text x="49" y="368" font-family="system-ui,-apple-system,sans-serif" font-size="11" fill="#8b5cf6" text-anchor="middle" font-weight="700">✓</text><text x="66" y="368" font-family="system-ui,-apple-system,sans-serif" font-size="15" fill="#e2e8f0">Team benchmarking against org-wide median</text>
<circle cx="49" cy="410" r="9" fill="#8b5cf6" opacity="0.13"/><text x="49" y="414" font-family="system-ui,-apple-system,sans-serif" font-size="11" fill="#8b5cf6" text-anchor="middle" font-weight="700">✓</text><text x="66" y="414" font-family="system-ui,-apple-system,sans-serif" font-size="15" fill="#e2e8f0">AI-generated coaching via Claude Sonnet 4.6</text>
<rect x="0" y="496" width="800" height="4" fill="#8b5cf6"/>
</svg>